<svg width="19" height="18" viewBox="0 0 19 18" fill="none" xmlns="http://www.w3.org/2000/svg">
<path fill-rule="evenodd" clip-rule="evenodd" d="M16.7757 0.942135C16.2331 0.399696 15.4972 0.0949707 14.73 0.0949707C13.9628 0.0949707 13.2269 0.399696 12.6843 0.942135L12.0024 1.62499L16.7766 6.39919L17.4576 5.7173C17.7263 5.44861 17.9395 5.12962 18.0849 4.77853C18.2304 4.42745 18.3052 4.05116 18.3052 3.67114C18.3052 3.29113 18.2304 2.91484 18.0849 2.56375C17.9395 2.21267 17.7263 1.89368 17.4576 1.62499L16.7757 0.942135ZM15.4119 7.76297L10.6377 2.98877L1.87053 11.7569C1.67868 11.9488 1.54466 12.1908 1.48377 12.4552L0.491317 16.752C0.454338 16.9115 0.458579 17.0778 0.503642 17.2352C0.548705 17.3926 0.633106 17.536 0.748891 17.6518C0.864677 17.7676 1.00803 17.852 1.16546 17.897C1.32288 17.9421 1.48918 17.9463 1.6487 17.9094L5.94644 16.9179C6.21052 16.8568 6.45214 16.7228 6.64377 16.5311L15.4119 7.76297Z" fill="white"/>
</svg>
