<svg width="16" height="17" viewBox="0 0 16 17" fill="none" xmlns="http://www.w3.org/2000/svg">
<path d="M15.5456 14.2105C15.7495 14.4143 15.864 14.6908 15.864 14.9791C15.864 15.2674 15.7495 15.5438 15.5456 15.7477C15.3418 15.9515 15.0653 16.066 14.7771 16.066C14.4888 16.066 14.2123 15.9515 14.0085 15.7477L8.26771 10.0051L2.5251 15.7458C2.32126 15.9497 2.0448 16.0642 1.75653 16.0642C1.46826 16.0642 1.19179 15.9497 0.987955 15.7458C0.784117 15.542 0.669601 15.2655 0.669601 14.9773C0.669601 14.689 0.784117 14.4125 0.987955 14.2087L6.73056 8.4679L0.989763 2.7253C0.785925 2.52146 0.67141 2.245 0.67141 1.95673C0.67141 1.66846 0.785925 1.39199 0.989763 1.18815C1.1936 0.984316 1.47007 0.869801 1.75834 0.869801C2.04661 0.869801 2.32307 0.984316 2.52691 1.18815L8.26771 6.93076L14.0103 1.18725C14.2141 0.983412 14.4906 0.868896 14.7789 0.868896C15.0672 0.868896 15.3436 0.983412 15.5475 1.18725C15.7513 1.39109 15.8658 1.66755 15.8658 1.95582C15.8658 2.24409 15.7513 2.52056 15.5475 2.7244L9.80485 8.4679L15.5456 14.2105Z" fill="white"/>
</svg>
